ply
format ascii 1.0
element vertex 80
property float x
property float y
property float z
property uchar red
property uchar green
property uchar blue
property float scale_0
property float scale_1
property float scale_2
property float opacity
end_header
-0.99825839 -0.74878508 -0.00061776 70 190 95 -2.8 -2.8 -2.8 0.95
-1.00055032 -0.74956275 0.99943762 70 190 230 -2.8 -2.8 -2.8 0.95
-1.00040027 0.75140422 -0.00060349 70 85 95 -2.8 -2.8 -2.8 0.95
-0.99938765 0.74936351 0.99964870 70 85 230 -2.8 -2.8 -2.8 0.95
0.99942341 -0.75104165 0.00078669 225 190 95 -2.8 -2.8 -2.8 0.95
0.99991061 -0.75134010 1.00068110 225 190 230 -2.8 -2.8 -2.8 0.95
0.99993515 0.75004355 0.00073545 225 85 95 -2.8 -2.8 -2.8 0.95
0.99711223 0.75004216 1.00042033 225 85 230 -2.8 -2.8 -2.8 0.95
-0.11222355 -0.42982817 0.44305318 138 167 154 -2.8 -2.8 -2.8 0.95
-0.89692817 -0.45611882 0.55311133 78 169 169 -2.8 -2.8 -2.8 0.95
-0.01746723 -0.31063486 0.71811856 145 159 191 -2.8 -2.8 -2.8 0.95
-0.15110937 -0.02812311 0.61889507 135 139 178 -2.8 -2.8 -2.8 0.95
0.60307926 -0.16938343 0.16274086 194 149 117 -2.8 -2.8 -2.8 0.95
0.21242624 -0.58764620 0.57201080 163 178 172 -2.8 -2.8 -2.8 0.95
-0.54443956 -0.60120453 0.93680765 105 179 221 -2.8 -2.8 -2.8 0.95
0.86442740 -0.36481755 0.48433017 214 163 160 -2.8 -2.8 -2.8 0.95
-0.56427445 0.42332051 0.70189323 103 107 189 -2.8 -2.8 -2.8 0.95
-0.11470395 0.19682208 0.64126336 138 123 181 -2.8 -2.8 -2.8 0.95
0.67454644 -0.55996481 0.21024560 199 176 123 -2.8 -2.8 -2.8 0.95
-0.15052448 -0.13382385 0.12803771 135 146 112 -2.8 -2.8 -2.8 0.95
0.00978248 0.35681323 0.18376300 148 112 119 -2.8 -2.8 -2.8 0.95
0.49074315 0.03869613 0.76046411 185 134 197 -2.8 -2.8 -2.8 0.95
0.14032852 0.21285644 0.66048305 158 122 184 -2.8 -2.8 -2.8 0.95
-0.34433793 -0.00885408 0.86479750 120 138 211 -2.8 -2.8 -2.8 0.95
-0.40778882 -0.30161275 0.20629981 115 158 122 -2.8 -2.8 -2.8 0.95
0.55163040 -0.35249879 0.55315569 190 162 169 -2.8 -2.8 -2.8 0.95
0.22765926 0.53879906 0.54127647 165 99 168 -2.8 -2.8 -2.8 0.95
-0.67735796 -0.13511078 0.90788326 94 147 217 -2.8 -2.8 -2.8 0.95
0.64592061 -0.24978564 0.44794181 197 155 155 -2.8 -2.8 -2.8 0.95
0.53823273 0.00924857 0.18948645 189 136 120 -2.8 -2.8 -2.8 0.95
0.64680935 0.22513748 0.75679395 197 121 197 -2.8 -2.8 -2.8 0.95
0.76653283 -0.20982502 0.07730690 206 152 105 -2.8 -2.8 -2.8 0.95
-0.37034104 -0.15731896 0.15875475 118 148 116 -2.8 -2.8 -2.8 0.95
0.22785256 0.21329427 0.37043113 165 122 144 -2.8 -2.8 -2.8 0.95
-0.38615361 -0.47002850 0.29998743 117 170 135 -2.8 -2.8 -2.8 0.95
0.26892599 0.26043093 0.72910798 168 119 193 -2.8 -2.8 -2.8 0.95
-0.77745448 -0.31951693 0.22986764 87 159 126 -2.8 -2.8 -2.8 0.95
-0.28159022 -0.54828813 0.06205842 125 175 103 -2.8 -2.8 -2.8 0.95
0.76481483 0.10113940 0.42342866 206 130 152 -2.8 -2.8 -2.8 0.95
0.60374932 -0.35514808 0.62842829 194 162 179 -2.8 -2.8 -2.8 0.95
-0.30581407 -0.59623997 0.56456937 123 179 170 -2.8 -2.8 -2.8 0.95
0.86025809 -0.29531486 0.51628351 214 158 164 -2.8 -2.8 -2.8 0.95
-0.17630109 0.24764212 0.47125692 133 120 158 -2.8 -2.8 -2.8 0.95
0.86709158 -0.64500942 0.78463646 214 182 200 -2.8 -2.8 -2.8 0.95
0.87367904 0.38958266 0.93831413 215 110 221 -2.8 -2.8 -2.8 0.95
-0.16460300 -0.60955626 0.67304108 134 180 185 -2.8 -2.8 -2.8 0.95
-0.68038950 0.15768084 0.16567643 94 126 117 -2.8 -2.8 -2.8 0.95
0.51245815 -0.16144780 0.34144761 187 148 141 -2.8 -2.8 -2.8 0.95
0.83575283 0.49795977 0.11324681 212 102 110 -2.8 -2.8 -2.8 0.95
0.80356202 0.15235039 0.89678346 209 126 216 -2.8 -2.8 -2.8 0.95
0.48853850 0.53428149 0.61739908 185 100 178 -2.8 -2.8 -2.8 0.95
0.25779170 0.52895993 0.17690638 167 100 119 -2.8 -2.8 -2.8 0.95
-0.82184196 0.19982885 0.70889335 83 123 190 -2.8 -2.8 -2.8 0.95
0.60777619 0.01565365 0.05785199 194 136 102 -2.8 -2.8 -2.8 0.95
0.16836552 -0.33637204 0.37466478 160 161 145 -2.8 -2.8 -2.8 0.95
0.30261990 0.11956347 0.23256599 171 129 126 -2.8 -2.8 -2.8 0.95
0.70243214 0.48233057 0.30612393 201 103 136 -2.8 -2.8 -2.8 0.95
-0.89125386 0.34680549 0.33054443 78 113 139 -2.8 -2.8 -2.8 0.95
0.82767139 -0.61708580 0.47258189 211 180 158 -2.8 -2.8 -2.8 0.95
0.87047773 -0.05548550 0.80758148 214 141 204 -2.8 -2.8 -2.8 0.95
0.46196408 -0.40737631 0.68796461 183 165 188 -2.8 -2.8 -2.8 0.95
0.00177162 0.32409776 0.16825277 147 114 117 -2.8 -2.8 -2.8 0.95
-0.75686344 -0.41394765 0.91108834 88 166 218 -2.8 -2.8 -2.8 0.95
-0.83467023 -0.01088268 0.39852798 82 138 148 -2.8 -2.8 -2.8 0.95
0.80708296 0.61805814 0.71518359 210 94 191 -2.8 -2.8 -2.8 0.95
0.03501992 -0.18908299 0.62751761 150 150 179 -2.8 -2.8 -2.8 0.95
0.80543854 -0.48341737 0.06265303 209 171 103 -2.8 -2.8 -2.8 0.95
0.04955906 0.58134555 0.86990840 151 96 212 -2.8 -2.8 -2.8 0.95
0.71729526 -0.37016729 0.17223927 202 163 118 -2.8 -2.8 -2.8 0.95
-0.72750259 0.61334214 0.51572724 91 94 164 -2.8 -2.8 -2.8 0.95
-0.09043240 0.03611906 0.23508686 140 135 126 -2.8 -2.8 -2.8 0.95
0.84914534 0.36666036 0.40946998 213 111 150 -2.8 -2.8 -2.8 0.95
0.12020365 0.49698435 0.53413709 156 102 167 -2.8 -2.8 -2.8 0.95
-0.73321593 -0.59512805 0.42127123 90 179 151 -2.8 -2.8 -2.8 0.95
0.21500053 -0.20281156 0.29239968 164 151 134 -2.8 -2.8 -2.8 0.95
-0.06238676 0.29951038 0.61793139 142 116 178 -2.8 -2.8 -2.8 0.95
-0.64154418 -0.51149913 0.70005723 97 173 189 -2.8 -2.8 -2.8 0.95
0.15706331 0.45998772 0.28459754 159 105 133 -2.8 -2.8 -2.8 0.95
-0.31897477 0.52057872 0.26826203 122 101 131 -2.8 -2.8 -2.8 0.95
0.38106445 -0.62440116 0.05564306 177 181 102 -2.8 -2.8 -2.8 0.95
